<?xml version="1.0" encoding="UTF-8" ?>
<!DOCTYPE svg PUBLIC "-//W3C//DTD SVG 1.1//EN" "http://www.w3.org/Graphics/SVG/1.1/DTD/svg11.dtd">
<svg width="500pt" height="500pt" viewBox="0 0 500 500" version="1.1" xmlns="http://www.w3.org/2000/svg">
<g id="#ffffffff">
</g>
<g id="#38b6ffff" transform="translate(3 30) translate(87.5 87.5) scale(0.65)">
<path fill="#38b6ff" opacity="1.00" d=" M 297.54 57.69 C 313.50 55.90 329.83 59.46 344.01 66.86 C 360.30 75.73 373.15 90.65 379.56 108.05 C 385.73 124.73 386.26 143.55 380.48 160.42 C 377.44 169.80 372.35 178.42 366.08 185.99 C 360.17 192.43 353.88 198.52 347.74 204.74 C 344.46 208.22 339.69 210.18 334.90 209.66 C 326.24 209.38 319.48 200.47 320.63 192.07 C 321.06 188.41 323.03 185.14 325.59 182.57 C 329.73 178.38 333.97 174.28 338.13 170.12 C 346.05 162.41 351.61 152.08 352.82 141.02 C 354.66 125.37 348.33 108.80 335.97 98.89 C 322.51 87.47 302.36 84.70 286.38 92.28 C 279.63 95.03 274.17 99.97 269.20 105.17 C 255.42 119.05 241.59 132.89 227.83 146.79 C 221.21 153.55 216.45 162.18 214.81 171.54 C 212.95 182.39 214.87 193.91 220.46 203.42 C 225.06 211.24 232.14 217.07 238.38 223.52 C 242.10 227.47 246.94 230.92 248.42 236.42 C 250.22 242.19 247.79 248.56 243.46 252.54 C 237.63 257.79 227.76 257.39 222.33 251.74 C 215.81 245.28 209.37 238.73 202.97 232.15 C 180.78 208.10 176.73 169.59 193.21 141.35 C 199.74 129.32 210.32 120.41 219.80 110.82 C 230.91 99.91 241.88 88.86 253.06 78.04 C 265.01 66.40 281.16 59.86 297.54 57.69 Z" />
<path fill="#38b6ff" opacity="1.00" d=" M 254.43 150.51 C 258.72 149.30 263.46 150.37 267.08 152.89 C 269.84 155.08 272.21 157.73 274.78 160.14 C 281.65 166.99 289.13 173.38 294.60 181.48 C 302.75 193.03 307.59 206.85 308.51 220.96 C 310.42 244.48 300.81 268.52 283.30 284.32 C 268.77 298.47 254.27 312.64 239.70 326.75 C 227.59 338.34 211.88 346.15 195.20 348.24 C 176.58 350.77 156.98 346.27 141.45 335.64 C 122.08 322.98 109.12 301.09 107.07 278.06 C 107.03 270.35 106.43 262.51 108.20 254.92 C 110.21 245.45 113.79 236.24 119.17 228.16 C 125.94 217.81 135.29 209.57 143.87 200.79 C 149.61 195.01 159.61 194.86 165.56 200.40 C 171.58 205.75 172.34 215.88 166.89 221.90 C 162.13 227.11 156.88 231.87 151.95 236.92 C 142.43 246.22 136.98 259.63 137.74 272.95 C 138.29 287.55 146.14 301.65 158.33 309.72 C 173.04 320.32 194.06 320.95 209.45 311.42 C 213.33 309.08 216.85 306.20 220.06 303.01 C 233.73 289.37 247.41 275.72 261.10 262.10 C 266.60 256.66 271.57 250.42 274.26 243.09 C 278.99 231.11 278.13 217.19 272.37 205.72 C 267.73 196.15 259.28 189.40 252.13 181.82 C 248.73 178.24 244.49 174.99 243.12 170.03 C 240.47 161.88 246.19 152.43 254.43 150.51 Z" />
</g>
</svg>
