<?xml version="1.0" encoding="UTF-8" ?>
<!DOCTYPE svg PUBLIC "-//W3C//DTD SVG 1.1//EN" "http://www.w3.org/Graphics/SVG/1.1/DTD/svg11.dtd">
<svg width="500pt" height="500pt" viewBox="0 0 500 500" version="1.1" xmlns="http://www.w3.org/2000/svg">
<g id="#ffffffff">
</g>
<g id="#38b6ffff">
<path fill="#38b6ff" opacity="1.00" d=" M 297.54 57.69 C 313.50 55.90 329.83 59.46 344.01 66.86 C 360.30 75.73 373.15 90.65 379.56 108.05 C 385.73 124.73 386.26 143.55 380.48 160.42 C 377.44 169.80 372.35 178.42 366.08 185.99 C 360.17 192.43 353.88 198.52 347.74 204.74 C 344.46 208.22 339.69 210.18 334.90 209.66 C 326.24 209.38 319.48 200.47 320.63 192.07 C 321.06 188.41 323.03 185.14 325.59 182.57 C 329.73 178.38 333.97 174.28 338.13 170.12 C 346.05 162.41 351.61 152.08 352.82 141.02 C 354.66 125.37 348.33 108.80 335.97 98.89 C 322.51 87.47 302.36 84.70 286.38 92.28 C 279.63 95.03 274.17 99.97 269.20 105.17 C 255.42 119.05 241.59 132.89 227.83 146.79 C 221.21 153.55 216.45 162.18 214.81 171.54 C 212.95 182.39 214.87 193.91 220.46 203.42 C 225.06 211.24 232.14 217.07 238.38 223.52 C 242.10 227.47 246.94 230.92 248.42 236.42 C 250.22 242.19 247.79 248.56 243.46 252.54 C 237.63 257.79 227.76 257.39 222.33 251.74 C 215.81 245.28 209.37 238.73 202.97 232.15 C 180.78 208.10 176.73 169.59 193.21 141.35 C 199.74 129.32 210.32 120.41 219.80 110.82 C 230.91 99.91 241.88 88.86 253.06 78.04 C 265.01 66.40 281.16 59.86 297.54 57.69 Z" />
<path fill="#38b6ff" opacity="1.00" d=" M 254.43 150.51 C 258.72 149.30 263.46 150.37 267.08 152.89 C 269.84 155.08 272.21 157.73 274.78 160.14 C 281.65 166.99 289.13 173.38 294.60 181.48 C 302.75 193.03 307.59 206.85 308.51 220.96 C 310.42 244.48 300.81 268.52 283.30 284.32 C 268.77 298.47 254.27 312.64 239.70 326.75 C 227.59 338.34 211.88 346.15 195.20 348.24 C 176.58 350.77 156.98 346.27 141.45 335.64 C 122.08 322.98 109.12 301.09 107.07 278.06 C 107.03 270.35 106.43 262.51 108.20 254.92 C 110.21 245.45 113.79 236.24 119.17 228.16 C 125.94 217.81 135.29 209.57 143.87 200.79 C 149.61 195.01 159.61 194.86 165.56 200.40 C 171.58 205.75 172.34 215.88 166.89 221.90 C 162.13 227.11 156.88 231.87 151.95 236.92 C 142.43 246.22 136.98 259.63 137.74 272.95 C 138.29 287.55 146.14 301.65 158.33 309.72 C 173.04 320.32 194.06 320.95 209.45 311.42 C 213.33 309.08 216.85 306.20 220.06 303.01 C 233.73 289.37 247.41 275.72 261.10 262.10 C 266.60 256.66 271.57 250.42 274.26 243.09 C 278.99 231.11 278.13 217.19 272.37 205.72 C 267.73 196.15 259.28 189.40 252.13 181.82 C 248.73 178.24 244.49 174.99 243.12 170.03 C 240.47 161.88 246.19 152.43 254.43 150.51 Z" />
</g>
<g id="#000000ff">
<path fill="#000000" opacity="1.00" d=" M 261.06 379.58 C 263.24 379.57 265.41 379.57 267.59 379.57 C 267.61 398.38 267.59 417.19 267.60 435.99 C 265.42 435.99 263.24 435.99 261.06 436.00 C 261.06 417.19 261.06 398.39 261.06 379.58 Z" />
<path fill="#000000" opacity="1.00" d=" M 202.43 381.49 C 205.19 380.53 208.10 383.16 207.41 386.03 C 207.49 389.42 202.78 390.75 200.66 388.37 C 199.09 386.24 199.49 382.20 202.43 381.49 Z" />
<path fill="#000000" opacity="1.00" d=" M 96.49 382.86 C 103.28 381.45 110.38 382.66 116.76 385.19 C 116.07 387.09 115.38 389.00 114.69 390.90 C 109.09 388.79 102.82 387.09 96.91 388.90 C 93.48 389.93 91.41 393.63 92.02 397.12 C 92.20 400.21 94.64 402.52 97.26 403.83 C 102.93 406.81 109.68 407.98 114.44 412.55 C 118.34 416.26 118.79 422.40 117.08 427.26 C 115.07 432.68 109.30 435.60 103.87 436.37 C 97.39 437.19 90.67 436.60 84.53 434.31 C 84.53 432.18 84.53 430.04 84.52 427.92 C 91.47 430.40 99.46 432.38 106.61 429.62 C 111.86 427.63 113.03 419.68 108.61 416.27 C 102.84 411.94 95.03 411.29 89.60 406.39 C 85.47 402.91 84.40 396.81 85.79 391.79 C 87.22 387.01 91.79 383.88 96.49 382.86 Z" />
<path fill="#000000" opacity="1.00" d=" M 274.50 383.00 C 287.73 383.00 300.97 383.00 314.20 383.00 C 314.20 384.95 314.20 386.90 314.20 388.86 C 308.71 388.86 303.22 388.86 297.74 388.86 C 297.74 404.57 297.73 420.29 297.74 436.00 C 295.50 435.99 293.27 435.99 291.04 436.00 C 291.04 420.29 291.04 404.58 291.04 388.86 C 285.53 388.86 280.01 388.86 274.50 388.86 C 274.50 386.91 274.49 384.95 274.50 383.00 Z" />
<path fill="#000000" opacity="1.00" d=" M 402.00 387.07 C 403.28 387.07 404.57 387.07 405.86 387.08 C 405.86 390.12 405.86 393.16 405.86 396.20 C 409.70 396.20 413.54 396.20 417.38 396.21 C 417.37 397.89 417.37 399.58 417.37 401.27 C 413.53 401.26 409.70 401.27 405.86 401.27 C 405.88 408.84 405.83 416.42 405.87 424.00 C 405.84 426.31 406.33 428.98 408.43 430.34 C 411.21 432.18 414.68 431.08 417.72 430.73 C 417.68 432.42 417.64 434.12 417.58 435.81 C 413.12 436.87 408.07 437.46 403.95 435.01 C 400.55 432.95 399.34 428.81 399.35 425.06 C 399.28 417.13 399.35 409.20 399.33 401.28 C 397.44 401.27 395.56 401.26 393.68 401.26 C 393.69 400.48 393.69 398.91 393.69 398.13 C 395.60 397.27 397.50 396.41 399.41 395.55 C 400.27 392.72 401.13 389.89 402.00 387.07 Z" />
<path fill="#000000" opacity="1.00" d=" M 130.25 401.29 C 136.52 393.45 150.42 393.41 156.28 401.76 C 159.55 406.25 159.70 412.03 159.59 417.36 C 150.48 417.37 141.37 417.34 132.26 417.38 C 132.48 422.26 134.16 427.88 139.06 429.96 C 145.12 432.39 151.96 430.81 157.80 428.45 C 157.80 430.35 157.80 432.26 157.81 434.17 C 151.49 436.84 144.22 437.66 137.60 435.67 C 131.50 433.84 127.11 428.19 126.09 422.00 C 124.93 414.97 125.59 407.01 130.25 401.29 M 135.27 404.39 C 133.44 406.57 132.98 409.46 132.39 412.16 C 139.21 412.17 146.03 412.17 152.85 412.16 C 152.50 408.34 151.59 403.82 147.87 401.86 C 143.76 399.94 138.12 400.61 135.27 404.39 Z" />
<path fill="#000000" opacity="1.00" d=" M 169.57 396.20 C 171.34 396.19 173.12 396.20 174.90 396.20 C 175.16 398.69 175.41 401.18 175.65 403.68 C 177.75 400.77 180.06 397.75 183.49 396.36 C 186.44 395.09 189.71 395.53 192.80 395.82 C 192.53 397.82 192.26 399.83 191.99 401.84 C 189.17 401.51 186.17 401.01 183.50 402.28 C 178.94 404.20 176.19 409.11 176.14 413.95 C 176.01 421.30 176.14 428.65 176.09 436.00 C 173.91 436.00 171.74 435.99 169.56 436.00 C 169.56 422.73 169.55 409.46 169.57 396.20 Z" />
<path fill="#000000" opacity="1.00" d=" M 200.31 396.20 C 202.49 396.20 204.66 396.20 206.84 396.20 C 206.85 409.47 206.84 422.73 206.85 436.00 C 204.67 435.99 202.48 435.99 200.31 436.00 C 200.32 422.73 200.31 409.47 200.31 396.20 Z" />
<path fill="#000000" opacity="1.00" d=" M 220.78 398.91 C 227.51 395.68 235.70 394.16 242.76 397.18 C 247.01 399.08 248.59 403.97 248.59 408.30 C 248.69 417.53 248.59 426.76 248.63 435.99 C 247.04 435.99 245.46 435.99 243.87 436.00 C 243.44 434.06 243.01 432.13 242.60 430.20 C 240.25 432.71 237.70 435.38 234.21 436.16 C 228.88 437.40 222.27 436.94 218.58 432.39 C 215.13 427.41 215.64 419.33 221.01 415.85 C 227.28 411.75 235.15 412.40 242.31 412.02 C 242.17 408.51 242.52 403.88 238.92 401.94 C 233.69 399.40 227.73 401.66 222.78 403.83 C 222.11 402.19 221.44 400.55 220.78 398.91 M 226.76 418.71 C 222.40 420.87 221.68 428.39 226.33 430.61 C 230.97 432.51 237.05 431.19 240.18 427.15 C 242.46 424.12 242.10 420.12 242.21 416.56 C 237.05 416.88 231.53 416.36 226.76 418.71 Z" />
<path fill="#000000" opacity="1.00" d=" M 323.54 401.55 C 329.64 393.58 343.48 393.31 349.54 401.44 C 353.02 405.95 353.21 411.90 353.10 417.36 C 343.99 417.36 334.89 417.35 325.78 417.36 C 325.98 422.14 327.55 427.62 332.25 429.81 C 338.34 432.50 345.36 430.80 351.30 428.47 C 351.29 430.37 351.30 432.27 351.30 434.18 C 344.77 436.90 337.21 437.75 330.43 435.43 C 324.59 433.42 320.51 427.84 319.56 421.85 C 318.46 414.96 319.10 407.21 323.54 401.55 M 331.86 401.85 C 327.95 403.72 326.51 408.18 325.89 412.16 C 332.70 412.17 339.52 412.17 346.35 412.16 C 345.97 408.70 345.36 404.81 342.42 402.53 C 339.41 400.37 335.16 400.39 331.86 401.85 Z" />
<path fill="#000000" opacity="1.00" d=" M 365.19 398.07 C 372.27 393.98 381.12 395.26 388.42 398.09 C 387.68 399.82 386.93 401.56 386.19 403.29 C 381.04 401.39 375.16 399.67 369.80 401.77 C 366.64 402.78 366.09 407.37 368.78 409.20 C 374.10 412.93 381.05 413.60 386.10 417.80 C 391.28 422.21 389.82 431.78 383.60 434.53 C 376.52 437.88 367.95 437.31 360.85 434.28 C 360.85 432.29 360.85 430.31 360.86 428.34 C 366.61 430.86 373.28 432.64 379.44 430.54 C 382.98 429.41 384.15 424.26 381.16 421.93 C 375.94 417.98 368.93 417.30 363.86 413.10 C 359.22 409.32 359.88 400.94 365.19 398.07 Z" />
</g>
</svg>
